HIERARCHY
ROOT Hips
{
	OFFSET 0.000000 89.005402 0.000000
	CHANNELS 6 Xposition Yposition Zposition Xrotation Yrotation Zrotation
	JOINT Spine
	{
		OFFSET 0.116900 10.681000 0.373400
		CHANNELS 3 Xrotation Yrotation Zrotation
		JOINT Spine1
		{
			OFFSET 0.000000 13.840401 0.053500
			CHANNELS 3 Xrotation Yrotation Zrotation
			JOINT Spine2
			{
				OFFSET 0.000000 14.712700 -0.366200
				CHANNELS 3 Xrotation Yrotation Zrotation
				JOINT Neck
				{
					OFFSET 0.000000 35.415497 -3.314200
					CHANNELS 3 Xrotation Yrotation Zrotation
					JOINT Head
					{
						OFFSET 0.000000 16.899200 1.218300
						CHANNELS 3 Xrotation Yrotation Zrotation
						JOINT HeadTop_End
						{
							OFFSET 0.000000 22.206207 2.192500
							CHANNELS 3 Xrotation Yrotation Zrotation
							End Site
							{
								OFFSET 0.000000 22.314178 0.000000
							}
						}
					}
				}
				JOINT LeftShoulder
				{
					OFFSET 12.896400 26.716293 -4.548400
					CHANNELS 3 Xrotation Yrotation Zrotation
					JOINT LeftArm
					{
						OFFSET 19.027000 -4.857010 -1.718400
						CHANNELS 3 Xrotation Yrotation Zrotation
						JOINT LeftForeArm
						{
							OFFSET 24.179897 0.000000 0.000000
							CHANNELS 3 Xrotation Yrotation Zrotation
							JOINT LeftHand
							{
								OFFSET 27.156403 0.000000 0.000000
								CHANNELS 3 Xrotation Yrotation Zrotation
								JOINT LeftHandIndex1
								{
									OFFSET 16.441200 0.000000 0.000000
									CHANNELS 3 Xrotation Yrotation Zrotation
									JOINT LeftHandIndex2
									{
										OFFSET 4.821899 0.000000 0.000000
										CHANNELS 3 Xrotation Yrotation Zrotation
										JOINT LeftHandIndex3
										{
											OFFSET 6.386497 0.000000 0.000000
											CHANNELS 3 Xrotation Yrotation Zrotation
											JOINT LeftHandIndex4
											{
												OFFSET 5.188988 0.000000 0.000000
												CHANNELS 3 Xrotation Yrotation Zrotation
												End Site
												{
													OFFSET -0.178703 5.185913 0.000177
												}
											}
										}
									}
								}
								JOINT LeftHandThumb1
								{
									OFFSET 6.534897 -5.032593 5.900300
									CHANNELS 3 Xrotation Yrotation Zrotation
									JOINT LeftHandThumb2
									{
										OFFSET 3.818176 -2.204422 2.204423
										CHANNELS 3 Xrotation Yrotation Zrotation
										JOINT LeftHandThumb3
										{
											OFFSET 3.252098 -1.877594 1.877601
											CHANNELS 3 Xrotation Yrotation Zrotation
											JOINT LeftHandThumb4
											{
												OFFSET 5.251778 -3.032120 3.032117
												CHANNELS 3 Xrotation Yrotation Zrotation
												End Site
												{
													OFFSET 0.000023 6.780014 0.000000
												}
											}
										}
									}
								}
							}
						}
					}
				}
				JOINT RightShoulder
				{
					OFFSET -12.896300 26.716293 -4.548400
					CHANNELS 3 Xrotation Yrotation Zrotation
					JOINT RightArm
					{
						OFFSET -19.027000 -4.857010 -1.718400
						CHANNELS 3 Xrotation Yrotation Zrotation
						JOINT RightForeArm
						{
							OFFSET -24.179897 0.000000 0.000000
							CHANNELS 3 Xrotation Yrotation Zrotation
							JOINT RightHand
							{
								OFFSET -27.156403 0.000000 0.000000
								CHANNELS 3 Xrotation Yrotation Zrotation
								JOINT RightHandThumb1
								{
									OFFSET -6.591202 -4.852203 5.988100
									CHANNELS 3 Xrotation Yrotation Zrotation
									JOINT RightHandThumb2
									{
										OFFSET -3.818176 -2.204422 2.204423
										CHANNELS 3 Xrotation Yrotation Zrotation
										JOINT RightHandThumb3
										{
											OFFSET -3.252098 -1.877594 1.877601
											CHANNELS 3 Xrotation Yrotation Zrotation
											JOINT RightHandThumb4
											{
												OFFSET -5.251778 -3.032120 3.032117
												CHANNELS 3 Xrotation Yrotation Zrotation
												End Site
												{
													OFFSET -0.000023 6.780014 0.000000
												}
											}
										}
									}
								}
								JOINT RightHandIndex1
								{
									OFFSET -16.029404 0.000000 0.000000
									CHANNELS 3 Xrotation Yrotation Zrotation
									JOINT RightHandIndex2
									{
										OFFSET -5.213303 0.000000 0.000000
										CHANNELS 3 Xrotation Yrotation Zrotation
										JOINT RightHandIndex3
										{
											OFFSET -6.386528 0.000000 0.000000
											CHANNELS 3 Xrotation Yrotation Zrotation
											JOINT RightHandIndex4
											{
												OFFSET -5.189026 0.000000 0.000000
												CHANNELS 3 Xrotation Yrotation Zrotation
												End Site
												{
													OFFSET 0.236702 5.183624 0.001972
												}
											}
										}
									}
								}
							}
						}
					}
				}
			}
		}
	}
	JOINT LeftUpLeg
	{
		OFFSET 14.073000 -7.904099 -1.463000
		CHANNELS 3 Xrotation Yrotation Zrotation
		JOINT LeftLeg
		{
			OFFSET -0.109806 -34.073280 4.093200
			CHANNELS 3 Xrotation Yrotation Zrotation
			JOINT LeftFoot
			{
				OFFSET 0.109806 -29.899420 -6.319000
				CHANNELS 3 Xrotation Yrotation Zrotation
				JOINT LeftToeBase
				{
					OFFSET 1.551100 -14.988700 20.535801
					CHANNELS 3 Xrotation Yrotation Zrotation
					JOINT LeftToe_End
					{
						OFFSET 0.221200 0.570800 13.248301
						CHANNELS 3 Xrotation Yrotation Zrotation
						End Site
						{
							OFFSET 0.000000 13.262435 0.000000
						}
					}
				}
			}
		}
	}
	JOINT RightUpLeg
	{
		OFFSET -13.839300 -7.904099 -1.463000
		CHANNELS 3 Xrotation Yrotation Zrotation
		JOINT RightLeg
		{
			OFFSET 0.109694 -34.073219 4.093300
			CHANNELS 3 Xrotation Yrotation Zrotation
			JOINT RightFoot
			{
				OFFSET -0.109694 -29.899384 -6.319200
				CHANNELS 3 Xrotation Yrotation Zrotation
				JOINT RightToeBase
				{
					OFFSET -1.551100 -14.988700 20.535801
					CHANNELS 3 Xrotation Yrotation Zrotation
					JOINT RightToe_End
					{
						OFFSET -0.221200 0.570900 13.248299
						CHANNELS 3 Xrotation Yrotation Zrotation
						End Site
						{
							OFFSET 0.000000 13.262440 0.000000
						}
					}
				}
			}
		}
	}
}
MOTION
Frames: 4
Frame Time: 0.033333
5.293186 81.294418 -4.101543 19.948855 -2.827810 -2.494553 24.835968 -0.164068 3.211778 3.809877 -0.245434 1.121165 3.810166 -0.194966 1.129998 3.268251 0.585380 -2.227190 -3.879978 2.616819 -6.779859 0.000005 0.000000 0.000000 2.284692 -20.662608 -2.481438 -7.632551 -20.919215 -44.596252 0.000011 -29.849057 0.000011 13.210838 -5.357284 6.522483 -0.554851 1.457101 -35.890878 0.347067 2.162498 -18.233987 -0.000006 -0.000010 -0.000007 -0.000001 -0.000002 -0.000001 -1.192402 4.298757 7.177570 10.421903 29.366897 -4.120665 4.511177 15.369017 -0.372446 -0.000000 0.000001 0.000000 2.212957 18.822972 6.834573 0.401607 13.927492 44.631294 -0.000003 51.573065 -0.000022 15.018903 -1.278753 1.260900 -1.370210 -0.799739 -4.163519 10.537933 -23.479679 0.988281 1.991206 -8.677428 -2.159827 0.000001 0.000000 0.000001 -4.008643 2.022374 41.434407 0.186314 -1.602008 13.267129 0.039056 -0.737455 6.062977 -0.000001 0.000001 -0.000003 -42.997861 6.350319 12.985152 42.981745 10.291878 0.963722 -17.293532 8.231872 -5.233699 -3.386311 -0.000007 0.000000 0.000000 0.000000 0.000000 -44.303916 -0.550232 -1.430775 36.740547 -9.209502 0.067796 -10.767758 -1.759254 1.842991 -2.322982 0.000007 0.000004 0.000000 0.000001 -0.000000 
5.459479 81.372009 -4.057751 18.822190 -2.569380 -2.339648 24.300493 -0.179883 3.156065 3.773721 -0.243706 1.104227 3.774021 -0.195522 1.112386 3.237829 0.532364 -2.117463 -3.453790 2.427455 -6.783860 0.000001 0.000000 -0.000000 2.241093 -20.601423 -2.733063 -7.178040 -21.472197 -45.261778 0.000003 -29.315599 0.000002 13.615625 -5.418926 6.314064 -0.543270 1.470838 -35.868093 0.344242 2.153899 -18.158702 -0.000006 -0.000009 -0.000001 0.000000 -0.000000 -0.000001 -1.170628 4.338642 7.181787 10.423484 29.370647 -4.121865 4.526901 15.404962 -0.381407 0.000000 -0.000002 -0.000001 2.142295 18.398761 7.051145 0.955251 14.403488 44.845895 0.000000 51.403949 0.000004 15.123569 -1.181423 1.389436 -1.380215 -0.748718 -4.146728 10.534953 -23.472908 0.987742 1.992793 -8.681612 -2.159895 -0.000000 -0.000001 -0.000001 -4.007547 2.013923 41.467048 0.188931 -1.613033 13.360231 0.039651 -0.742999 6.108630 0.000001 0.000000 -0.000002 -41.400994 6.599798 12.545429 42.504336 10.269996 0.976962 -17.518339 8.153567 -5.244004 -3.015171 0.000022 0.000011 0.000000 -0.000000 0.000000 -42.765464 -0.574242 -1.691400 36.530826 -9.313982 -0.239928 -11.418927 -1.681528 1.972989 -1.783438 -0.000013 0.000003 -0.000000 -0.000000 -0.000000 
5.634687 81.474808 -4.012423 17.629562 -2.294373 -2.180656 23.797477 -0.191254 3.102717 3.740314 -0.241285 1.087267 3.740666 -0.195210 1.094739 3.168376 0.484980 -2.001958 -2.976329 2.262369 -6.795117 0.000001 -0.000000 -0.000000 2.171231 -20.501084 -3.126386 -6.799485 -21.937130 -45.924904 0.000016 -28.772510 -0.000003 13.918137 -5.405069 6.126313 -0.531145 1.486246 -35.851571 0.341054 2.144145 -18.073813 -0.000006 -0.000009 -0.000003 -0.000000 -0.000001 -0.000001 -1.158500 4.359340 7.203184 10.443403 29.415839 -4.135579 4.514860 15.377269 -0.374459 -0.000000 0.000001 -0.000001 2.080764 17.861549 7.166264 1.323479 15.008832 45.329568 -0.000012 50.837002 -0.000000 15.332108 -0.980754 1.558598 -1.389830 -0.700055 -4.144816 10.532029 -23.466256 0.987094 1.994264 -8.685488 -2.159921 0.000002 -0.000002 -0.000000 -4.006308 2.016212 41.452138 0.190388 -1.619172 13.411965 0.040080 -0.747036 6.142061 -0.000000 0.000001 0.000001 -39.745089 6.908112 12.223649 42.007453 10.147483 0.868894 -17.615203 8.003690 -5.342080 -2.689084 -0.000011 0.000001 0.000000 -0.000001 0.000001 -41.280311 -0.506270 -2.066132 36.406855 -9.161334 -0.574400 -11.618459 -1.868513 2.681431 -1.366285 0.000005 -0.000001 0.000000 0.000001 0.000000 
5.838006 81.599670 -3.941559 16.362756 -1.984330 -2.083102 23.329834 -0.214500 3.136160 3.719005 -0.244625 1.073206 3.719409 -0.200928 1.080470 3.101615 0.424924 -1.909932 -2.606886 2.018892 -6.794072 0.000003 -0.000000 -0.000000 2.083950 -20.299379 -3.602951 -6.625577 -22.346980 -46.759332 -0.000000 -28.003315 0.000018 14.186260 -5.538966 6.102606 -0.535899 1.480025 -35.853439 0.343541 2.151717 -18.139977 -0.000006 -0.000009 -0.000005 -0.000002 -0.000001 -0.000001 -1.162643 4.353287 7.150394 10.473547 29.484270 -4.156428 4.491076 15.322761 -0.360837 0.000001 0.000003 0.000001 2.002963 17.495407 7.526044 1.914140 15.330532 45.489507 0.000034 50.365917 -0.000048 15.580988 -0.838861 1.699127 -1.392589 -0.676827 -4.135082 10.534148 -23.471102 0.987561 1.994951 -8.687293 -2.159925 0.000001 0.000001 -0.000000 -3.992930 2.013917 41.393371 0.190998 -1.621712 13.433372 0.040310 -0.749165 6.159601 -0.000002 0.000001 0.000002 -38.019452 7.208701 11.945562 41.514624 9.980196 0.777951 -17.669819 7.844442 -5.493614 -2.410612 -0.000010 -0.000001 0.000000 0.000001 0.000000 -39.676439 -0.520213 -2.484308 36.271460 -9.038784 -0.807827 -11.775226 -1.986652 3.326780 -1.130490 -0.000001 -0.000002 -0.000000 -0.000001 -0.000001 
